<?xml version="1.0" encoding="utf-8"?>
<!-- Generator: Adobe Illustrator 23.0.6, SVG Export Plug-In . SVG Version: 6.00 Build 0)  -->
<svg version="1.1" id="Ebene_2" xmlns="http://www.w3.org/2000/svg" xmlns:xlink="http://www.w3.org/1999/xlink" x="0px" y="0px"
	 viewBox="0 0 317.4 306.9" style="enable-background:new 0 0 317.4 306.9;" xml:space="preserve">
<style type="text/css">
	.st0{clip-path:url(#SVGID_2_);}
	.st1{clip-path:url(#SVGID_4_);fill:#4F4FFF;}
	.st2{clip-path:url(#SVGID_6_);fill:#FFFFFF;}
	.st3{clip-path:url(#SVGID_8_);fill:#FFFFFF;}
	.st4{clip-path:url(#SVGID_10_);fill:#FFFFFF;}
	.st5{clip-path:url(#SVGID_12_);fill:#FFFFFF;}
	.st6{clip-path:url(#SVGID_14_);fill:#FFFFFF;}
	.st7{clip-path:url(#SVGID_16_);fill:#4F4FFF;}
	.st8{clip-path:url(#SVGID_18_);fill:#4F4FFF;}
	.st9{clip-path:url(#SVGID_20_);fill:#4F4FFF;}
	.st10{clip-path:url(#SVGID_22_);fill:#FFFFFF;}
	.st11{clip-path:url(#SVGID_24_);fill:#4F4FFF;}
	.st12{clip-path:url(#SVGID_26_);fill:#FFFFFF;}
	.st13{clip-path:url(#SVGID_28_);fill:#4F4FFF;}
	.st14{clip-path:url(#SVGID_30_);fill:#FFFFFF;}
	.st15{clip-path:url(#SVGID_32_);fill:#4F4FFF;}
	.st16{clip-path:url(#SVGID_34_);fill:#FFFFFF;}
	.st17{clip-path:url(#SVGID_36_);fill:#4F4FFF;}
	.st18{clip-path:url(#SVGID_38_);fill:#FFFFFF;}
	.st19{clip-path:url(#SVGID_40_);fill:#4F4FFF;}
	.st20{clip-path:url(#SVGID_42_);fill:#FFFFFF;}
</style>
<g>
	<defs>
		<circle id="SVGID_1_" cx="158.7" cy="153.4" r="126.4"/>
	</defs>
	<clipPath id="SVGID_2_">
		<use xlink:href="#SVGID_1_"  style="overflow:visible;"/>
	</clipPath>
	<g class="st0">
		<g>
			<g>
				<defs>
					<rect id="SVGID_3_" x="-5.5" y="-9.9" width="333.6" height="322.5"/>
				</defs>
				<clipPath id="SVGID_4_">
					<use xlink:href="#SVGID_3_"  style="overflow:visible;"/>
				</clipPath>
				<path class="st1" d="M285,152.9c0,69.6-56.4,126.1-126.1,126.1S32.8,222.5,32.8,152.9c0-69.6,56.4-126.1,126.1-126.1
					S285,83.3,285,152.9"/>
			</g>
		</g>
		<g>
			<g>
				<defs>
					<rect id="SVGID_5_" x="-5.5" y="-0.4" width="333.6" height="322.5"/>
				</defs>
				<clipPath id="SVGID_6_">
					<use xlink:href="#SVGID_5_"  style="overflow:visible;"/>
				</clipPath>
				<path class="st2" d="M167.3,231.1l-16-16c-3.1-3.1-3.1-8.1,0-11.1c3.1-3.1,8.1-3.1,11.1,0l16,16c3.1,3.1,3.1,8.1,0,11.1
					C175.4,234.1,170.4,234.1,167.3,231.1"/>
			</g>
			<g>
				<defs>
					<rect id="SVGID_7_" x="-5.5" y="-0.4" width="333.6" height="322.5"/>
				</defs>
				<clipPath id="SVGID_8_">
					<use xlink:href="#SVGID_7_"  style="overflow:visible;"/>
				</clipPath>
				<path class="st3" d="M184.8,216.8l-16.6-16.6c-2.8-2.8-2.8-7.3,0-10s7.3-2.8,10,0l16.6,16.6c2.8,2.8,2.8,7.3,0,10
					C192.1,219.6,187.6,219.6,184.8,216.8"/>
			</g>
			<g>
				<defs>
					<rect id="SVGID_9_" x="-5.5" y="-0.4" width="333.6" height="322.5"/>
				</defs>
				<clipPath id="SVGID_10_">
					<use xlink:href="#SVGID_9_"  style="overflow:visible;"/>
				</clipPath>
				<path class="st4" d="M199.5,202.2L183,185.8c-2.8-2.8-2.8-7.4,0-10.2c2.8-2.8,7.4-2.8,10.2,0l16.5,16.5c2.8,2.8,2.8,7.4,0,10.2
					C206.9,205,202.3,205,199.5,202.2"/>
			</g>
			<g>
				<defs>
					<rect id="SVGID_11_" x="-5.5" y="-0.4" width="333.6" height="322.5"/>
				</defs>
				<clipPath id="SVGID_12_">
					<use xlink:href="#SVGID_11_"  style="overflow:visible;"/>
				</clipPath>
				<path class="st5" d="M212.3,185.8L196.6,170c-3-3-3-7.9,0-11s7.9-3,11,0l15.7,15.7c3,3,3,7.9,0,11
					C220.3,188.8,215.3,188.8,212.3,185.8"/>
			</g>
			<g>
				<defs>
					<rect id="SVGID_13_" x="-5.5" y="-0.4" width="333.6" height="322.5"/>
				</defs>
				<clipPath id="SVGID_14_">
					<use xlink:href="#SVGID_13_"  style="overflow:visible;"/>
				</clipPath>
				<polygon class="st6" points="216.4,167.9 155.7,109.7 165.4,100.8 79.2,16.3 7.1,99.7 78.6,170.8 159.7,223.5 				"/>
			</g>
			<g>
				<defs>
					<rect id="SVGID_15_" x="-5.5" y="-0.4" width="333.6" height="322.5"/>
				</defs>
				<clipPath id="SVGID_16_">
					<use xlink:href="#SVGID_15_"  style="overflow:visible;"/>
				</clipPath>
				<path class="st7" d="M184.6,226.5l-13-13.7c-1.2-1.2-1.1-3.2,0.1-4.4l0.3-0.3c1.2-1.2,3.2-1.1,4.4,0.1l13,13.7
					c1.2,1.2,1.1,3.2-0.1,4.4l-0.3,0.3C187.7,227.8,185.7,227.7,184.6,226.5"/>
			</g>
			<g>
				<defs>
					<rect id="SVGID_17_" x="-5.5" y="-0.4" width="333.6" height="322.5"/>
				</defs>
				<clipPath id="SVGID_18_">
					<use xlink:href="#SVGID_17_"  style="overflow:visible;"/>
				</clipPath>
				<path class="st8" d="M200.8,212.2l-13.7-13c-1.2-1.2-1.3-3.1-0.1-4.4l0.3-0.3c1.2-1.2,3.1-1.3,4.4-0.1l13.7,13
					c1.2,1.2,1.3,3.1,0.1,4.4l-0.3,0.3C203.9,213.3,202,213.3,200.8,212.2"/>
			</g>
			<g>
				<defs>
					<rect id="SVGID_19_" x="-5.5" y="-0.4" width="333.6" height="322.5"/>
				</defs>
				<clipPath id="SVGID_20_">
					<use xlink:href="#SVGID_19_"  style="overflow:visible;"/>
				</clipPath>
				<path class="st9" d="M215.1,197.9l-13.4-13.4c-1.2-1.2-1.2-3.2,0-4.4l0.3-0.3c1.2-1.2,3.2-1.2,4.4,0l13.4,13.4
					c1.2,1.2,1.2,3.2,0,4.4l-0.3,0.3C218.3,199.1,216.3,199.1,215.1,197.9"/>
			</g>
		</g>
		<g>
			<g>
				<defs>
					<rect id="SVGID_21_" x="-5.5" y="-0.4" width="333.6" height="322.5"/>
				</defs>
				<clipPath id="SVGID_22_">
					<use xlink:href="#SVGID_21_"  style="overflow:visible;"/>
				</clipPath>
				<path class="st10" d="M90.7,191c-2.6,0-5-1-6.8-2.7c-4-3.8-4.1-10-0.4-14l17.7-18.6c1.9-2,4.5-3.1,7.2-3.1c2.6,0,5,1,6.8,2.7
					c4,3.8,4.1,10,0.4,14l-17.7,18.6C96,189.9,93.4,191,90.7,191z"/>
			</g>
			<g>
				<defs>
					<rect id="SVGID_23_" x="-5.5" y="-0.4" width="333.6" height="322.5"/>
				</defs>
				<clipPath id="SVGID_24_">
					<use xlink:href="#SVGID_23_"  style="overflow:visible;"/>
				</clipPath>
				<path class="st11" d="M108.3,156.3c1.5,0,3.1,0.6,4.3,1.7c2.5,2.4,2.6,6.3,0.2,8.8l-17.7,18.6c-1.2,1.3-2.9,1.9-4.5,1.9
					c-1.5,0-3.1-0.6-4.3-1.7c-2.5-2.4-2.6-6.3-0.2-8.8l17.7-18.6C105,156.9,106.7,156.3,108.3,156.3 M108.3,148.9
					c-3.7,0-7.3,1.5-9.8,4.2l-17.7,18.6c-2.5,2.6-3.8,6.1-3.7,9.7s1.6,7,4.2,9.5c2.5,2.4,5.8,3.7,9.3,3.7c3.7,0,7.3-1.5,9.8-4.2
					l17.7-18.6c2.5-2.6,3.8-6.1,3.7-9.7c-0.1-3.6-1.6-7-4.2-9.5C115.1,150.3,111.8,148.9,108.3,148.9"/>
			</g>
			<g>
				<defs>
					<rect id="SVGID_25_" x="-5.5" y="-0.4" width="333.6" height="322.5"/>
				</defs>
				<clipPath id="SVGID_26_">
					<use xlink:href="#SVGID_25_"  style="overflow:visible;"/>
				</clipPath>
				<path class="st12" d="M106.1,205.7c-2.6,0-5-1-6.8-2.7c-1.9-1.8-3-4.3-3.1-6.9c-0.1-2.6,0.9-5.2,2.7-7.1l17.7-18.6
					c1.9-2,4.5-3.1,7.2-3.1c2.6,0,5,1,6.8,2.7c1.9,1.8,3,4.3,3.1,6.9c0.1,2.6-0.9,5.2-2.7,7.1l-17.7,18.6
					C111.4,204.6,108.8,205.7,106.1,205.7z"/>
			</g>
			<g>
				<defs>
					<rect id="SVGID_27_" x="-5.5" y="-0.4" width="333.6" height="322.5"/>
				</defs>
				<clipPath id="SVGID_28_">
					<use xlink:href="#SVGID_27_"  style="overflow:visible;"/>
				</clipPath>
				<path class="st13" d="M123.8,170.9c1.5,0,3.1,0.6,4.3,1.7c2.5,2.4,2.6,6.3,0.2,8.8l-17.7,18.6c-1.2,1.3-2.9,1.9-4.5,1.9
					c-1.5,0-3.1-0.6-4.3-1.7c-2.5-2.4-2.6-6.3-0.2-8.8l17.7-18.6C120.5,171.6,122.1,170.9,123.8,170.9 M123.8,163.6
					c-3.7,0-7.3,1.5-9.8,4.2l-17.7,18.6c-2.5,2.6-3.8,6.1-3.7,9.7c0.1,3.6,1.6,7,4.2,9.5c2.5,2.4,5.8,3.7,9.3,3.7
					c3.7,0,7.3-1.5,9.8-4.2l17.7-18.6c2.5-2.6,3.8-6.1,3.7-9.7c-0.1-3.6-1.6-7-4.2-9.5C130.6,164.9,127.3,163.6,123.8,163.6"/>
			</g>
			<g>
				<defs>
					<rect id="SVGID_29_" x="-5.5" y="-0.4" width="333.6" height="322.5"/>
				</defs>
				<clipPath id="SVGID_30_">
					<use xlink:href="#SVGID_29_"  style="overflow:visible;"/>
				</clipPath>
				<path class="st14" d="M121.1,220.3c-2.6,0-5-1-6.8-2.7c-1.9-1.8-3-4.3-3.1-6.9s0.9-5.2,2.7-7.1l17.7-18.6c1.9-2,4.5-3.1,7.2-3.1
					c2.6,0,5,1,6.8,2.7c1.9,1.8,3,4.3,3.1,6.9c0.1,2.6-0.9,5.2-2.7,7.1l-17.7,18.6C126.5,219.1,123.9,220.3,121.1,220.3L121.1,220.3
					z"/>
			</g>
			<g>
				<defs>
					<rect id="SVGID_31_" x="-5.5" y="-0.4" width="333.6" height="322.5"/>
				</defs>
				<clipPath id="SVGID_32_">
					<use xlink:href="#SVGID_31_"  style="overflow:visible;"/>
				</clipPath>
				<path class="st15" d="M138.8,185.5c1.5,0,3.1,0.6,4.3,1.7c2.5,2.4,2.6,6.3,0.2,8.8l-17.7,18.6c-1.2,1.3-2.9,1.9-4.5,1.9
					c-1.5,0-3.1-0.6-4.3-1.7c-2.5-2.4-2.6-6.3-0.2-8.8l17.7-18.6C135.5,186.2,137.2,185.5,138.8,185.5 M138.8,178.2
					c-3.7,0-7.3,1.5-9.9,4.2L111.3,201c-2.5,2.6-3.8,6.1-3.7,9.7c0.1,3.6,1.6,7,4.2,9.5c2.5,2.4,5.8,3.7,9.3,3.7
					c3.7,0,7.3-1.5,9.9-4.2l17.7-18.6c2.5-2.6,3.8-6.1,3.7-9.7c-0.1-3.6-1.6-7-4.2-9.5C145.6,179.5,142.3,178.2,138.8,178.2"/>
			</g>
			<g>
				<defs>
					<rect id="SVGID_33_" x="-5.5" y="-0.4" width="333.6" height="322.5"/>
				</defs>
				<clipPath id="SVGID_34_">
					<use xlink:href="#SVGID_33_"  style="overflow:visible;"/>
				</clipPath>
				<path class="st16" d="M136,234.3c-2.6,0-5-1-6.8-2.7c-1.9-1.8-3-4.3-3.1-6.9c-0.1-2.6,0.9-5.2,2.7-7.1l17.7-18.6
					c1.9-2,4.5-3.1,7.2-3.1c2.6,0,5,1,6.8,2.7c1.9,1.8,3,4.3,3.1,6.9c0.1,2.6-0.9,5.2-2.7,7.1l-17.7,18.6
					C141.3,233.2,138.7,234.3,136,234.3z"/>
			</g>
			<g>
				<defs>
					<rect id="SVGID_35_" x="-5.5" y="-0.4" width="333.6" height="322.5"/>
				</defs>
				<clipPath id="SVGID_36_">
					<use xlink:href="#SVGID_35_"  style="overflow:visible;"/>
				</clipPath>
				<path class="st17" d="M153.6,199.6c1.5,0,3.1,0.6,4.3,1.7c2.5,2.4,2.6,6.3,0.2,8.8l-17.7,18.6c-1.2,1.3-2.9,1.9-4.5,1.9
					c-1.5,0-3.1-0.6-4.3-1.7c-2.5-2.4-2.6-6.3-0.2-8.8l17.7-18.6C150.3,200.2,152,199.6,153.6,199.6 M153.6,192.2
					c-3.7,0-7.3,1.5-9.9,4.2l-17.7,18.6c-2.5,2.6-3.8,6.1-3.7,9.7c0.1,3.6,1.6,7,4.2,9.5c2.5,2.4,5.9,3.7,9.3,3.7
					c3.7,0,7.3-1.5,9.9-4.2l17.7-18.6c5.1-5.4,4.9-14-0.5-19.2C160.4,193.5,157.1,192.2,153.6,192.2"/>
			</g>
			<g>
				<defs>
					<rect id="SVGID_37_" x="-5.5" y="-0.4" width="333.6" height="322.5"/>
				</defs>
				<clipPath id="SVGID_38_">
					<use xlink:href="#SVGID_37_"  style="overflow:visible;"/>
				</clipPath>
				<path class="st18" d="M155.3,151.1c-4.1,0-8.1-1.7-10.8-4.7c-5.6-6-5.3-15.4,0.7-21l26.1-24.5c2.8-2.6,6.4-4,10.1-4
					c4.1,0,8.1,1.7,10.8,4.7c5.6,6,5.3,15.4-0.7,21l-26.1,24.5C162.7,149.6,159.1,151.1,155.3,151.1z"/>
			</g>
			<g>
				<defs>
					<rect id="SVGID_39_" x="-5.5" y="-0.4" width="333.6" height="322.5"/>
				</defs>
				<clipPath id="SVGID_40_">
					<use xlink:href="#SVGID_39_"  style="overflow:visible;"/>
				</clipPath>
				<path class="st19" d="M181.4,101.1c2.8,0,5.7,1.1,7.8,3.3c4,4.3,3.8,11-0.5,15.1L162.6,144c-2.1,1.9-4.7,2.9-7.3,2.9
					c-2.8,0-5.7-1.1-7.8-3.4c-4-4.3-3.8-11,0.5-15.1l26.1-24.5C176.2,102.1,178.8,101.1,181.4,101.1 M181.4,92.7
					c-4.9,0-9.5,1.8-13,5.1l-26.1,24.5c-7.7,7.2-8.1,19.3-0.9,26.9c3.6,3.8,8.6,6,13.9,6c4.9,0,9.5-1.8,13-5.1l26.1-24.5
					c3.7-3.5,5.8-8.2,6-13.3s-1.7-9.9-5.1-13.6C191.7,94.9,186.6,92.7,181.4,92.7"/>
			</g>
			<g>
				<defs>
					<rect id="SVGID_41_" x="-5.5" y="-0.4" width="333.6" height="322.5"/>
				</defs>
				<clipPath id="SVGID_42_">
					<use xlink:href="#SVGID_41_"  style="overflow:visible;"/>
				</clipPath>
				<polygon class="st20" points="317.8,82.3 229.6,170.5 183.4,124.5 177.6,101.3 158.8,82.7 158.9,81.9 238.1,3.3 				"/>
			</g>
		</g>
	</g>
</g>
</svg>
