<?xml version="1.0" encoding="utf-8"?>
<!-- Generator: Adobe Illustrator 23.0.6, SVG Export Plug-In . SVG Version: 6.00 Build 0)  -->
<svg version="1.1" id="Ebene_1" xmlns="http://www.w3.org/2000/svg" xmlns:xlink="http://www.w3.org/1999/xlink" x="0px" y="0px"
	 viewBox="0 0 694.3 299.1" style="enable-background:new 0 0 694.3 299.1;" xml:space="preserve">
<style type="text/css">
	.st0{clip-path:url(#SVGID_2_);}
	.st1{clip-path:url(#SVGID_4_);fill:#4F4FFF;}
	.st2{clip-path:url(#SVGID_6_);fill:#FFFFFF;}
	.st3{clip-path:url(#SVGID_8_);fill:#FFFFFF;}
	.st4{clip-path:url(#SVGID_10_);fill:#FFFFFF;}
	.st5{clip-path:url(#SVGID_12_);fill:#FFFFFF;}
	.st6{clip-path:url(#SVGID_14_);fill:#FFFFFF;}
	.st7{clip-path:url(#SVGID_16_);fill:#4F4FFF;}
	.st8{clip-path:url(#SVGID_18_);fill:#4F4FFF;}
	.st9{clip-path:url(#SVGID_20_);fill:#4F4FFF;}
	.st10{clip-path:url(#SVGID_22_);fill:#FFFFFF;}
	.st11{clip-path:url(#SVGID_24_);fill:#4F4FFF;}
	.st12{clip-path:url(#SVGID_26_);fill:#FFFFFF;}
	.st13{clip-path:url(#SVGID_28_);fill:#4F4FFF;}
	.st14{clip-path:url(#SVGID_30_);fill:#FFFFFF;}
	.st15{clip-path:url(#SVGID_32_);fill:#4F4FFF;}
	.st16{clip-path:url(#SVGID_34_);fill:#FFFFFF;}
	.st17{clip-path:url(#SVGID_36_);fill:#4F4FFF;}
	.st18{clip-path:url(#SVGID_38_);fill:#FFFFFF;}
	.st19{clip-path:url(#SVGID_40_);fill:#4F4FFF;}
	.st20{clip-path:url(#SVGID_42_);fill:#FFFFFF;}
	.st21{fill:#4F4FFF;}
</style>
<g>
	<g>
		<g>
			<g>
				<defs>
					<circle id="SVGID_1_" cx="161.7" cy="148.9" r="126.4"/>
				</defs>
				<clipPath id="SVGID_2_">
					<use xlink:href="#SVGID_1_"  style="overflow:visible;"/>
				</clipPath>
				<g class="st0">
					<g>
						<g>
							<g>
								<g>
									<defs>
										<rect id="SVGID_3_" x="-2.5" y="-14.4" width="333.6" height="322.5"/>
									</defs>
									<clipPath id="SVGID_4_">
										<use xlink:href="#SVGID_3_"  style="overflow:visible;"/>
									</clipPath>
									<path class="st1" d="M288,148.4c0,69.6-56.4,126.1-126.1,126.1S35.8,218,35.8,148.4S92.2,22.3,161.9,22.3
										S288,78.8,288,148.4"/>
								</g>
							</g>
						</g>
					</g>
					<g>
						<g>
							<g>
								<g>
									<defs>
										<rect id="SVGID_5_" x="-2.5" y="-4.9" width="333.6" height="322.5"/>
									</defs>
									<clipPath id="SVGID_6_">
										<use xlink:href="#SVGID_5_"  style="overflow:visible;"/>
									</clipPath>
									<path class="st2" d="M170.3,226.6l-16-16c-3.1-3.1-3.1-8.1,0-11.1c3.1-3.1,8.1-3.1,11.1,0l16,16c3.1,3.1,3.1,8.1,0,11.1
										C178.4,229.6,173.4,229.6,170.3,226.6"/>
								</g>
							</g>
						</g>
						<g>
							<g>
								<g>
									<defs>
										<rect id="SVGID_7_" x="-2.5" y="-4.9" width="333.6" height="322.5"/>
									</defs>
									<clipPath id="SVGID_8_">
										<use xlink:href="#SVGID_7_"  style="overflow:visible;"/>
									</clipPath>
									<path class="st3" d="M187.8,212.3l-16.6-16.6c-2.8-2.8-2.8-7.3,0-10s7.3-2.8,10,0l16.6,16.6c2.8,2.8,2.8,7.3,0,10
										C195.1,215.1,190.6,215.1,187.8,212.3"/>
								</g>
							</g>
						</g>
						<g>
							<g>
								<g>
									<defs>
										<rect id="SVGID_9_" x="-2.5" y="-4.9" width="333.6" height="322.5"/>
									</defs>
									<clipPath id="SVGID_10_">
										<use xlink:href="#SVGID_9_"  style="overflow:visible;"/>
									</clipPath>
									<path class="st4" d="M202.5,197.7L186,181.3c-2.8-2.8-2.8-7.4,0-10.2s7.4-2.8,10.2,0l16.5,16.5c2.8,2.8,2.8,7.4,0,10.2
										C209.9,200.5,205.3,200.5,202.5,197.7"/>
								</g>
							</g>
						</g>
						<g>
							<g>
								<g>
									<defs>
										<rect id="SVGID_11_" x="-2.5" y="-4.9" width="333.6" height="322.5"/>
									</defs>
									<clipPath id="SVGID_12_">
										<use xlink:href="#SVGID_11_"  style="overflow:visible;"/>
									</clipPath>
									<path class="st5" d="M215.3,181.3l-15.7-15.8c-3-3-3-7.9,0-11s7.9-3,11,0l15.7,15.7c3,3,3,7.9,0,11
										S218.3,184.3,215.3,181.3"/>
								</g>
							</g>
						</g>
						<g>
							<g>
								<g>
									<defs>
										<rect id="SVGID_13_" x="-2.5" y="-4.9" width="333.6" height="322.5"/>
									</defs>
									<clipPath id="SVGID_14_">
										<use xlink:href="#SVGID_13_"  style="overflow:visible;"/>
									</clipPath>
									<polygon class="st6" points="219.4,163.4 158.7,105.2 168.4,96.3 82.2,11.8 10.1,95.2 81.6,166.3 162.7,219 									"/>
								</g>
							</g>
						</g>
						<g>
							<g>
								<g>
									<defs>
										<rect id="SVGID_15_" x="-2.5" y="-4.9" width="333.6" height="322.5"/>
									</defs>
									<clipPath id="SVGID_16_">
										<use xlink:href="#SVGID_15_"  style="overflow:visible;"/>
									</clipPath>
									<path class="st7" d="M187.6,222l-13-13.7c-1.2-1.2-1.1-3.2,0.1-4.4l0.3-0.3c1.2-1.2,3.2-1.1,4.4,0.1l13,13.7
										c1.2,1.2,1.1,3.2-0.1,4.4l-0.3,0.3C190.7,223.3,188.7,223.2,187.6,222"/>
								</g>
							</g>
						</g>
						<g>
							<g>
								<g>
									<defs>
										<rect id="SVGID_17_" x="-2.5" y="-4.9" width="333.6" height="322.5"/>
									</defs>
									<clipPath id="SVGID_18_">
										<use xlink:href="#SVGID_17_"  style="overflow:visible;"/>
									</clipPath>
									<path class="st8" d="M203.8,207.7l-13.7-13c-1.2-1.2-1.3-3.1-0.1-4.4l0.3-0.3c1.2-1.2,3.1-1.3,4.4-0.1l13.7,13
										c1.2,1.2,1.3,3.1,0.1,4.4l-0.3,0.3C206.9,208.8,205,208.8,203.8,207.7"/>
								</g>
							</g>
						</g>
						<g>
							<g>
								<g>
									<defs>
										<rect id="SVGID_19_" x="-2.5" y="-4.9" width="333.6" height="322.5"/>
									</defs>
									<clipPath id="SVGID_20_">
										<use xlink:href="#SVGID_19_"  style="overflow:visible;"/>
									</clipPath>
									<path class="st9" d="M218.1,193.4L204.7,180c-1.2-1.2-1.2-3.2,0-4.4l0.3-0.3c1.2-1.2,3.2-1.2,4.4,0l13.4,13.4
										c1.2,1.2,1.2,3.2,0,4.4l-0.3,0.3C221.3,194.6,219.3,194.6,218.1,193.4"/>
								</g>
							</g>
						</g>
					</g>
					<g>
						<g>
							<g>
								<g>
									<defs>
										<rect id="SVGID_21_" x="-2.5" y="-4.9" width="333.6" height="322.5"/>
									</defs>
									<clipPath id="SVGID_22_">
										<use xlink:href="#SVGID_21_"  style="overflow:visible;"/>
									</clipPath>
									<path class="st10" d="M93.7,186.5c-2.6,0-5-1-6.8-2.7c-4-3.8-4.1-10-0.4-14l17.7-18.6c1.9-2,4.5-3.1,7.2-3.1
										c2.6,0,5,1,6.8,2.7c4,3.8,4.1,10,0.4,14l-17.7,18.6C99,185.4,96.4,186.5,93.7,186.5z"/>
								</g>
							</g>
						</g>
						<g>
							<g>
								<g>
									<defs>
										<rect id="SVGID_23_" x="-2.5" y="-4.9" width="333.6" height="322.5"/>
									</defs>
									<clipPath id="SVGID_24_">
										<use xlink:href="#SVGID_23_"  style="overflow:visible;"/>
									</clipPath>
									<path class="st11" d="M111.3,151.8c1.5,0,3.1,0.6,4.3,1.7c2.5,2.4,2.6,6.3,0.2,8.8l-17.7,18.6c-1.2,1.3-2.9,1.9-4.5,1.9
										c-1.5,0-3.1-0.6-4.3-1.7c-2.5-2.4-2.6-6.3-0.2-8.8l17.7-18.6C108,152.4,109.7,151.8,111.3,151.8 M111.3,144.4
										c-3.7,0-7.3,1.5-9.8,4.2l-17.7,18.6c-2.5,2.6-3.8,6.1-3.7,9.7s1.6,7,4.2,9.5c2.5,2.4,5.8,3.7,9.3,3.7
										c3.7,0,7.3-1.5,9.8-4.2l17.7-18.6c2.5-2.6,3.8-6.1,3.7-9.7c-0.1-3.6-1.6-7-4.2-9.5C118.1,145.8,114.8,144.4,111.3,144.4"/>
								</g>
							</g>
						</g>
						<g>
							<g>
								<g>
									<defs>
										<rect id="SVGID_25_" x="-2.5" y="-4.9" width="333.6" height="322.5"/>
									</defs>
									<clipPath id="SVGID_26_">
										<use xlink:href="#SVGID_25_"  style="overflow:visible;"/>
									</clipPath>
									<path class="st12" d="M109.1,201.2c-2.6,0-5-1-6.8-2.7c-1.9-1.8-3-4.3-3.1-6.9c-0.1-2.6,0.9-5.2,2.7-7.1l17.7-18.6
										c1.9-2,4.5-3.1,7.2-3.1c2.6,0,5,1,6.8,2.7c1.9,1.8,3,4.3,3.1,6.9c0.1,2.6-0.9,5.2-2.7,7.1l-17.7,18.6
										C114.4,200.1,111.8,201.2,109.1,201.2z"/>
								</g>
							</g>
						</g>
						<g>
							<g>
								<g>
									<defs>
										<rect id="SVGID_27_" x="-2.5" y="-4.9" width="333.6" height="322.5"/>
									</defs>
									<clipPath id="SVGID_28_">
										<use xlink:href="#SVGID_27_"  style="overflow:visible;"/>
									</clipPath>
									<path class="st13" d="M126.8,166.4c1.5,0,3.1,0.6,4.3,1.7c2.5,2.4,2.6,6.3,0.2,8.8l-17.7,18.6c-1.2,1.3-2.9,1.9-4.5,1.9
										c-1.5,0-3.1-0.6-4.3-1.7c-2.5-2.4-2.6-6.3-0.2-8.8l17.7-18.6C123.5,167.1,125.1,166.4,126.8,166.4 M126.8,159.1
										c-3.7,0-7.3,1.5-9.8,4.2l-17.7,18.6c-2.5,2.6-3.8,6.1-3.7,9.7c0.1,3.6,1.6,7,4.2,9.5c2.5,2.4,5.8,3.7,9.3,3.7
										c3.7,0,7.3-1.5,9.8-4.2l17.7-18.6c2.5-2.6,3.8-6.1,3.7-9.7c-0.1-3.6-1.6-7-4.2-9.5C133.6,160.4,130.3,159.1,126.8,159.1"/>
								</g>
							</g>
						</g>
						<g>
							<g>
								<g>
									<defs>
										<rect id="SVGID_29_" x="-2.5" y="-4.9" width="333.6" height="322.5"/>
									</defs>
									<clipPath id="SVGID_30_">
										<use xlink:href="#SVGID_29_"  style="overflow:visible;"/>
									</clipPath>
									<path class="st14" d="M124.1,215.8c-2.6,0-5-1-6.8-2.7c-1.9-1.8-3-4.3-3.1-6.9s0.9-5.2,2.7-7.1l17.7-18.6
										c1.9-2,4.5-3.1,7.2-3.1c2.6,0,5,1,6.8,2.7c1.9,1.8,3,4.3,3.1,6.9c0.1,2.6-0.9,5.2-2.7,7.1l-17.7,18.6
										C129.5,214.6,126.9,215.8,124.1,215.8L124.1,215.8z"/>
								</g>
							</g>
						</g>
						<g>
							<g>
								<g>
									<defs>
										<rect id="SVGID_31_" x="-2.5" y="-4.9" width="333.6" height="322.5"/>
									</defs>
									<clipPath id="SVGID_32_">
										<use xlink:href="#SVGID_31_"  style="overflow:visible;"/>
									</clipPath>
									<path class="st15" d="M141.8,181c1.5,0,3.1,0.6,4.3,1.7c2.5,2.4,2.6,6.3,0.2,8.8l-17.7,18.6c-1.2,1.3-2.9,1.9-4.5,1.9
										c-1.5,0-3.1-0.6-4.3-1.7c-2.5-2.4-2.6-6.3-0.2-8.8l17.7-18.6C138.5,181.7,140.2,181,141.8,181 M141.8,173.7
										c-3.7,0-7.3,1.5-9.9,4.2l-17.6,18.6c-2.5,2.6-3.8,6.1-3.7,9.7c0.1,3.6,1.6,7,4.2,9.5c2.5,2.4,5.8,3.7,9.3,3.7
										c3.7,0,7.3-1.5,9.9-4.2l17.7-18.6c2.5-2.6,3.8-6.1,3.7-9.7c-0.1-3.6-1.6-7-4.2-9.5C148.6,175,145.3,173.7,141.8,173.7"/>
								</g>
							</g>
						</g>
						<g>
							<g>
								<g>
									<defs>
										<rect id="SVGID_33_" x="-2.5" y="-4.9" width="333.6" height="322.5"/>
									</defs>
									<clipPath id="SVGID_34_">
										<use xlink:href="#SVGID_33_"  style="overflow:visible;"/>
									</clipPath>
									<path class="st16" d="M139,229.8c-2.6,0-5-1-6.8-2.7c-1.9-1.8-3-4.3-3.1-6.9c-0.1-2.6,0.9-5.2,2.7-7.1l17.7-18.6
										c1.9-2,4.5-3.1,7.2-3.1c2.6,0,5,1,6.8,2.7c1.9,1.8,3,4.3,3.1,6.9c0.1,2.6-0.9,5.2-2.7,7.1l-17.7,18.6
										C144.3,228.7,141.7,229.8,139,229.8z"/>
								</g>
							</g>
						</g>
						<g>
							<g>
								<g>
									<defs>
										<rect id="SVGID_35_" x="-2.5" y="-4.9" width="333.6" height="322.5"/>
									</defs>
									<clipPath id="SVGID_36_">
										<use xlink:href="#SVGID_35_"  style="overflow:visible;"/>
									</clipPath>
									<path class="st17" d="M156.6,195.1c1.5,0,3.1,0.6,4.3,1.7c2.5,2.4,2.6,6.3,0.2,8.8l-17.7,18.6c-1.2,1.3-2.9,1.9-4.5,1.9
										c-1.5,0-3.1-0.6-4.3-1.7c-2.5-2.4-2.6-6.3-0.2-8.8l17.7-18.6C153.3,195.7,155,195.1,156.6,195.1 M156.6,187.7
										c-3.7,0-7.3,1.5-9.9,4.2L129,210.5c-2.5,2.6-3.8,6.1-3.7,9.7c0.1,3.6,1.6,7,4.2,9.5c2.5,2.4,5.9,3.7,9.3,3.7
										c3.7,0,7.3-1.5,9.9-4.2l17.7-18.6c5.1-5.4,4.9-14-0.5-19.2C163.4,189,160.1,187.7,156.6,187.7"/>
								</g>
							</g>
						</g>
						<g>
							<g>
								<g>
									<defs>
										<rect id="SVGID_37_" x="-2.5" y="-4.9" width="333.6" height="322.5"/>
									</defs>
									<clipPath id="SVGID_38_">
										<use xlink:href="#SVGID_37_"  style="overflow:visible;"/>
									</clipPath>
									<path class="st18" d="M158.3,146.6c-4.1,0-8.1-1.7-10.8-4.7c-5.6-6-5.3-15.4,0.7-21l26.1-24.5c2.8-2.6,6.4-4,10.1-4
										c4.1,0,8.1,1.7,10.8,4.7c5.6,6,5.3,15.4-0.7,21l-26.1,24.5C165.7,145.1,162.1,146.6,158.3,146.6z"/>
								</g>
							</g>
						</g>
						<g>
							<g>
								<g>
									<defs>
										<rect id="SVGID_39_" x="-2.5" y="-4.9" width="333.6" height="322.5"/>
									</defs>
									<clipPath id="SVGID_40_">
										<use xlink:href="#SVGID_39_"  style="overflow:visible;"/>
									</clipPath>
									<path class="st19" d="M184.4,96.6c2.8,0,5.7,1.1,7.8,3.3c4,4.3,3.8,11-0.5,15.1l-26.1,24.5c-2.1,1.9-4.7,2.9-7.3,2.9
										c-2.8,0-5.7-1.1-7.8-3.4c-4-4.3-3.8-11,0.5-15.1l26.1-24.5C179.2,97.6,181.8,96.6,184.4,96.6 M184.4,88.2
										c-4.9,0-9.5,1.8-13,5.1l-26.1,24.5c-7.7,7.2-8.1,19.3-0.9,26.9c3.6,3.8,8.6,6,13.9,6c4.9,0,9.5-1.8,13-5.1l26.1-24.5
										c3.7-3.5,5.8-8.2,6-13.3s-1.7-9.9-5.1-13.6C194.7,90.4,189.6,88.2,184.4,88.2"/>
								</g>
							</g>
						</g>
						<g>
							<g>
								<g>
									<defs>
										<rect id="SVGID_41_" x="-2.5" y="-4.9" width="333.6" height="322.5"/>
									</defs>
									<clipPath id="SVGID_42_">
										<use xlink:href="#SVGID_41_"  style="overflow:visible;"/>
									</clipPath>
									<polygon class="st20" points="320.8,77.8 232.6,166 186.4,120 180.6,96.8 161.8,78.2 161.9,77.4 241.1,-1.2 									"/>
								</g>
							</g>
						</g>
					</g>
				</g>
			</g>
		</g>
	</g>
</g>
<g>
	<path class="st21" d="M344.3,53.2h-13.2V45h36.2v8.2H354v36h-9.7V53.2z"/>
	<path class="st21" d="M457.7,89.2H448l-7.5-30.1h-0.1l-7.4,30.1h-9.8L411.5,45h9.7l7,30.1h0.1L436,45h9.1l7.5,30.4h0.1L460,45h9.5
		L457.7,89.2z"/>
	<path class="st21" d="M537.1,44c13.7,0,21.7,10.2,21.7,23.3c0,12.7-8,22.9-21.7,22.9c-13.7,0-21.7-10.2-21.7-22.9
		C515.4,54.2,523.4,44,537.1,44z M537.1,82.1c8.7,0,12-7.4,12-14.8c0-7.7-3.3-15.2-12-15.2c-8.7,0-12,7.4-12,15.2
		C525.1,74.7,528.4,82.1,537.1,82.1z"/>
	<path class="st21" d="M366.5,170.8c-3.4,4.4-7.9,6.1-12.1,6.1c-13.7,0-21.7-10.2-21.7-22.9c0-13.1,8-23.3,21.7-23.3
		c9,0,17.6,5.6,18.6,15.6h-9.3c-1.1-4.9-4.8-7.4-9.3-7.4c-8.7,0-12,7.4-12,15.2c0,7.4,3.3,14.8,12,14.8c6.3,0,10-3.4,10.5-9.5h-9.8
		v-7.2h18.6v23.9h-6.2L366.5,170.8z"/>
	<path class="st21" d="M462.2,159.1c0,11.9-7,17.8-18.9,17.8c-11.9,0-18.8-5.8-18.8-17.8v-27.5h9.7v27.5c0,4.8,1.2,9.6,9.1,9.6
		c6.9,0,9.2-3,9.2-9.6v-27.5h9.7V159.1z"/>
	<path class="st21" d="M525.3,158.6l-16.3-27H520l10.3,17.4l10.3-17.4h10.8L535,158.8v16.9h-9.7V158.6z"/>
	<path class="st21" d="M605,161.1c0,5.9,4.6,8.2,9.8,8.2c3.4,0,8.6-1,8.6-5.5c0-4.8-6.6-5.6-13.1-7.3c-6.6-1.7-13.2-4.3-13.2-12.6
		c0-9,8.5-13.4,16.5-13.4c9.2,0,17.7,4,17.7,14.2h-9.4c-0.3-5.3-4.1-6.7-8.7-6.7c-3.1,0-6.7,1.3-6.7,5c0,3.4,2.1,3.8,13.2,6.7
		c3.2,0.8,13.1,2.8,13.1,12.9c0,8.1-6.4,14.2-18.4,14.2c-9.8,0-18.9-4.8-18.8-15.7H605z"/>
	<path class="st21" d="M346.6,218.2h10l16.5,44.2H363l-3.3-9.8h-16.5l-3.5,9.8h-9.8L346.6,218.2z M345.7,245.3h11.4l-5.6-16.2h-0.1
		L345.7,245.3z"/>
	<path class="st21" d="M420.2,218.2h19.9c11,0,15.3,7,15.3,14.2s-4.3,14.2-15.3,14.2h-10.2v15.8h-9.7V218.2z M429.9,239h7.5
		c4.5,0,8.5-1,8.5-6.6s-4-6.6-8.5-6.6h-7.5V239z"/>
	<path class="st21" d="M504.7,218.2h19.9c11,0,15.3,7,15.3,14.2s-4.3,14.2-15.3,14.2h-10.2v15.8h-9.7V218.2z M514.4,239h7.5
		c4.5,0,8.5-1,8.5-6.6s-4-6.6-8.5-6.6h-7.5V239z"/>
</g>
</svg>
