<?xml version="1.0" encoding="utf-8"?>
<!-- Generator: Adobe Illustrator 23.0.6, SVG Export Plug-In . SVG Version: 6.00 Build 0)  -->
<svg version="1.1" xmlns="http://www.w3.org/2000/svg" xmlns:xlink="http://www.w3.org/1999/xlink" x="0px" y="0px"
	 viewBox="0 0 585.459 271.435" style="enable-background:new 0 0 585.459 271.435;" xml:space="preserve">
<style type="text/css">
	.st0{clip-path:url(#SVGID_2_);}
	.st1{clip-path:url(#SVGID_4_);fill:#4F4FFF;}
	.st2{clip-path:url(#SVGID_6_);fill:#FFFFFF;}
	.st3{clip-path:url(#SVGID_8_);fill:#FFFFFF;}
	.st4{clip-path:url(#SVGID_10_);fill:#FFFFFF;}
	.st5{clip-path:url(#SVGID_12_);fill:#FFFFFF;}
	.st6{clip-path:url(#SVGID_14_);fill:#FFFFFF;}
	.st7{clip-path:url(#SVGID_16_);fill:#4F4FFF;}
	.st8{clip-path:url(#SVGID_18_);fill:#4F4FFF;}
	.st9{clip-path:url(#SVGID_20_);fill:#4F4FFF;}
	.st10{clip-path:url(#SVGID_22_);fill:#FFFFFF;}
	.st11{clip-path:url(#SVGID_24_);fill:#4F4FFF;}
	.st12{clip-path:url(#SVGID_26_);fill:#FFFFFF;}
	.st13{clip-path:url(#SVGID_28_);fill:#4F4FFF;}
	.st14{clip-path:url(#SVGID_30_);fill:#FFFFFF;}
	.st15{clip-path:url(#SVGID_32_);fill:#4F4FFF;}
	.st16{clip-path:url(#SVGID_34_);fill:#FFFFFF;}
	.st17{clip-path:url(#SVGID_36_);fill:#4F4FFF;}
	.st18{clip-path:url(#SVGID_38_);fill:#FFFFFF;}
	.st19{clip-path:url(#SVGID_40_);fill:#4F4FFF;}
	.st20{clip-path:url(#SVGID_42_);fill:#FFFFFF;}
	.st21{fill:#4F4FFF;}
	.st22{display:none;}
</style>
<g id="Ebene_1">
	<g>
		<g>
			<g>
				<g>
					<g>
						<defs>
							<circle id="SVGID_1_" cx="136.644" cy="136.18" r="126.4"/>
						</defs>
						<clipPath id="SVGID_2_">
							<use xlink:href="#SVGID_1_"  style="overflow:visible;"/>
						</clipPath>
						<g class="st0">
							<g>
								<g>
									<g>
										<g>
											<g>
												<defs>
													<rect id="SVGID_3_" x="-27.556" y="-27.12" width="333.6" height="322.5"/>
												</defs>
												<clipPath id="SVGID_4_">
													<use xlink:href="#SVGID_3_"  style="overflow:visible;"/>
												</clipPath>
												<path class="st1" d="M262.944,135.68c0,69.6-56.4,126.1-126.1,126.1s-126.1-56.5-126.1-126.1s56.4-126.1,126.1-126.1
													S262.944,66.08,262.944,135.68"/>
											</g>
										</g>
									</g>
								</g>
							</g>
							<g>
								<g>
									<g>
										<g>
											<g>
												<defs>
													<rect id="SVGID_5_" x="-27.556" y="-17.62" width="333.6" height="322.5"/>
												</defs>
												<clipPath id="SVGID_6_">
													<use xlink:href="#SVGID_5_"  style="overflow:visible;"/>
												</clipPath>
												<path class="st2" d="M145.244,213.88l-16-16c-3.1-3.1-3.1-8.1,0-11.1c3.1-3.1,8.1-3.1,11.1,0l16,16
													c3.1,3.1,3.1,8.1,0,11.1C153.344,216.88,148.344,216.88,145.244,213.88"/>
											</g>
										</g>
									</g>
								</g>
								<g>
									<g>
										<g>
											<g>
												<defs>
													<rect id="SVGID_7_" x="-27.556" y="-17.62" width="333.6" height="322.5"/>
												</defs>
												<clipPath id="SVGID_8_">
													<use xlink:href="#SVGID_7_"  style="overflow:visible;"/>
												</clipPath>
												<path class="st3" d="M162.744,199.58l-16.6-16.6c-2.8-2.8-2.8-7.3,0-10s7.3-2.8,10,0l16.6,16.6c2.8,2.8,2.8,7.3,0,10
													C170.044,202.38,165.544,202.38,162.744,199.58"/>
											</g>
										</g>
									</g>
								</g>
								<g>
									<g>
										<g>
											<g>
												<defs>
													<rect id="SVGID_9_" x="-27.556" y="-17.62" width="333.6" height="322.5"/>
												</defs>
												<clipPath id="SVGID_10_">
													<use xlink:href="#SVGID_9_"  style="overflow:visible;"/>
												</clipPath>
												<path class="st4" d="M177.444,184.98l-16.5-16.4c-2.8-2.8-2.8-7.4,0-10.2s7.4-2.8,10.2,0l16.5,16.5
													c2.8,2.8,2.8,7.4,0,10.2C184.844,187.78,180.244,187.78,177.444,184.98"/>
											</g>
										</g>
									</g>
								</g>
								<g>
									<g>
										<g>
											<g>
												<defs>
													<rect id="SVGID_11_" x="-27.556" y="-17.62" width="333.6" height="322.5"/>
												</defs>
												<clipPath id="SVGID_12_">
													<use xlink:href="#SVGID_11_"  style="overflow:visible;"/>
												</clipPath>
												<path class="st5" d="M190.244,168.58l-15.7-15.8c-3-3-3-7.9,0-11s7.9-3,11,0l15.7,15.7c3,3,3,7.9,0,11
													S193.244,171.58,190.244,168.58"/>
											</g>
										</g>
									</g>
								</g>
								<g>
									<g>
										<g>
											<g>
												<defs>
													<rect id="SVGID_13_" x="-27.556" y="-17.62" width="333.6" height="322.5"/>
												</defs>
												<clipPath id="SVGID_14_">
													<use xlink:href="#SVGID_13_"  style="overflow:visible;"/>
												</clipPath>
												<polygon class="st6" points="194.344,150.68 133.644,92.48 143.344,83.58 57.144,-0.92 -14.956,82.48 56.544,153.58 
													137.644,206.28 												"/>
											</g>
										</g>
									</g>
								</g>
								<g>
									<g>
										<g>
											<g>
												<defs>
													<rect id="SVGID_15_" x="-27.556" y="-17.62" width="333.6" height="322.5"/>
												</defs>
												<clipPath id="SVGID_16_">
													<use xlink:href="#SVGID_15_"  style="overflow:visible;"/>
												</clipPath>
												<path class="st7" d="M162.544,209.28l-13-13.7c-1.2-1.2-1.1-3.2,0.1-4.4l0.3-0.3c1.2-1.2,3.2-1.1,4.4,0.1l13,13.7
													c1.2,1.2,1.1,3.2-0.1,4.4l-0.3,0.3C165.644,210.58,163.644,210.48,162.544,209.28"/>
											</g>
										</g>
									</g>
								</g>
								<g>
									<g>
										<g>
											<g>
												<defs>
													<rect id="SVGID_17_" x="-27.556" y="-17.62" width="333.6" height="322.5"/>
												</defs>
												<clipPath id="SVGID_18_">
													<use xlink:href="#SVGID_17_"  style="overflow:visible;"/>
												</clipPath>
												<path class="st8" d="M178.744,194.98l-13.7-13c-1.2-1.2-1.3-3.1-0.1-4.4l0.3-0.3c1.2-1.2,3.1-1.3,4.4-0.1l13.7,13
													c1.2,1.2,1.3,3.1,0.1,4.4l-0.3,0.3C181.844,196.08,179.944,196.08,178.744,194.98"/>
											</g>
										</g>
									</g>
								</g>
								<g>
									<g>
										<g>
											<g>
												<defs>
													<rect id="SVGID_19_" x="-27.556" y="-17.62" width="333.6" height="322.5"/>
												</defs>
												<clipPath id="SVGID_20_">
													<use xlink:href="#SVGID_19_"  style="overflow:visible;"/>
												</clipPath>
												<path class="st9" d="M193.044,180.68l-13.4-13.4c-1.2-1.2-1.2-3.2,0-4.4l0.3-0.3c1.2-1.2,3.2-1.2,4.4,0l13.4,13.4
													c1.2,1.2,1.2,3.2,0,4.4l-0.3,0.3C196.244,181.88,194.244,181.88,193.044,180.68"/>
											</g>
										</g>
									</g>
								</g>
							</g>
							<g>
								<g>
									<g>
										<g>
											<g>
												<defs>
													<rect id="SVGID_21_" x="-27.556" y="-17.62" width="333.6" height="322.5"/>
												</defs>
												<clipPath id="SVGID_22_">
													<use xlink:href="#SVGID_21_"  style="overflow:visible;"/>
												</clipPath>
												<path class="st10" d="M68.644,173.78c-2.6,0-5-1-6.8-2.7c-4-3.8-4.1-10-0.4-14l17.7-18.6c1.9-2,4.5-3.1,7.2-3.1
													c2.6,0,5,1,6.8,2.7c4,3.8,4.1,10,0.4,14l-17.7,18.6C73.944,172.68,71.344,173.78,68.644,173.78z"/>
											</g>
										</g>
									</g>
								</g>
								<g>
									<g>
										<g>
											<g>
												<defs>
													<rect id="SVGID_23_" x="-27.556" y="-17.62" width="333.6" height="322.5"/>
												</defs>
												<clipPath id="SVGID_24_">
													<use xlink:href="#SVGID_23_"  style="overflow:visible;"/>
												</clipPath>
												<path class="st11" d="M86.244,139.08c1.5,0,3.1,0.6,4.3,1.7c2.5,2.4,2.6,6.3,0.2,8.8l-17.7,18.6
													c-1.2,1.3-2.9,1.9-4.5,1.9c-1.5,0-3.1-0.6-4.3-1.7c-2.5-2.4-2.6-6.3-0.2-8.8l17.7-18.6
													C82.944,139.68,84.644,139.08,86.244,139.08 M86.244,131.68c-3.7,0-7.3,1.5-9.8,4.2l-17.7,18.6
													c-2.5,2.6-3.8,6.1-3.7,9.7s1.6,7,4.2,9.5c2.5,2.4,5.8,3.7,9.3,3.7c3.7,0,7.3-1.5,9.8-4.2l17.7-18.6
													c2.5-2.6,3.8-6.1,3.7-9.7c-0.1-3.6-1.6-7-4.2-9.5C93.044,133.08,89.744,131.68,86.244,131.68"/>
											</g>
										</g>
									</g>
								</g>
								<g>
									<g>
										<g>
											<g>
												<defs>
													<rect id="SVGID_25_" x="-27.556" y="-17.62" width="333.6" height="322.5"/>
												</defs>
												<clipPath id="SVGID_26_">
													<use xlink:href="#SVGID_25_"  style="overflow:visible;"/>
												</clipPath>
												<path class="st12" d="M84.044,188.48c-2.6,0-5-1-6.8-2.7c-1.9-1.8-3-4.3-3.1-6.9c-0.1-2.6,0.9-5.2,2.7-7.1l17.7-18.6
													c1.9-2,4.5-3.1,7.2-3.1c2.6,0,5,1,6.8,2.7c1.9,1.8,3,4.3,3.1,6.9c0.1,2.6-0.9,5.2-2.7,7.1l-17.7,18.6
													C89.344,187.38,86.744,188.48,84.044,188.48z"/>
											</g>
										</g>
									</g>
								</g>
								<g>
									<g>
										<g>
											<g>
												<defs>
													<rect id="SVGID_27_" x="-27.556" y="-17.62" width="333.6" height="322.5"/>
												</defs>
												<clipPath id="SVGID_28_">
													<use xlink:href="#SVGID_27_"  style="overflow:visible;"/>
												</clipPath>
												<path class="st13" d="M101.744,153.68c1.5,0,3.1,0.6,4.3,1.7c2.5,2.4,2.6,6.3,0.2,8.8l-17.7,18.6
													c-1.2,1.3-2.9,1.9-4.5,1.9c-1.5,0-3.1-0.6-4.3-1.7c-2.5-2.4-2.6-6.3-0.2-8.8l17.7-18.6
													C98.444,154.38,100.044,153.68,101.744,153.68 M101.744,146.38c-3.7,0-7.3,1.5-9.8,4.2l-17.7,18.6
													c-2.5,2.6-3.8,6.1-3.7,9.7c0.1,3.6,1.6,7,4.2,9.5c2.5,2.4,5.8,3.7,9.3,3.7c3.7,0,7.3-1.5,9.8-4.2l17.7-18.6
													c2.5-2.6,3.8-6.1,3.7-9.7c-0.1-3.6-1.6-7-4.2-9.5C108.544,147.68,105.244,146.38,101.744,146.38"/>
											</g>
										</g>
									</g>
								</g>
								<g>
									<g>
										<g>
											<g>
												<defs>
													<rect id="SVGID_29_" x="-27.556" y="-17.62" width="333.6" height="322.5"/>
												</defs>
												<clipPath id="SVGID_30_">
													<use xlink:href="#SVGID_29_"  style="overflow:visible;"/>
												</clipPath>
												<path class="st14" d="M99.044,203.08c-2.6,0-5-1-6.8-2.7c-1.9-1.8-3-4.3-3.1-6.9s0.9-5.2,2.7-7.1l17.7-18.6
													c1.9-2,4.5-3.1,7.2-3.1c2.6,0,5,1,6.8,2.7c1.9,1.8,3,4.3,3.1,6.9c0.1,2.6-0.9,5.2-2.7,7.1l-17.7,18.6
													C104.444,201.88,101.844,203.08,99.044,203.08L99.044,203.08z"/>
											</g>
										</g>
									</g>
								</g>
								<g>
									<g>
										<g>
											<g>
												<defs>
													<rect id="SVGID_31_" x="-27.556" y="-17.62" width="333.6" height="322.5"/>
												</defs>
												<clipPath id="SVGID_32_">
													<use xlink:href="#SVGID_31_"  style="overflow:visible;"/>
												</clipPath>
												<path class="st15" d="M116.744,168.28c1.5,0,3.1,0.6,4.3,1.7c2.5,2.4,2.6,6.3,0.2,8.8l-17.7,18.6
													c-1.2,1.3-2.9,1.9-4.5,1.9c-1.5,0-3.1-0.6-4.3-1.7c-2.5-2.4-2.6-6.3-0.2-8.8l17.7-18.6
													C113.444,168.98,115.144,168.28,116.744,168.28 M116.744,160.98c-3.7,0-7.3,1.5-9.9,4.2l-17.6,18.6
													c-2.5,2.6-3.8,6.1-3.7,9.7c0.1,3.6,1.6,7,4.2,9.5c2.5,2.4,5.8,3.7,9.3,3.7c3.7,0,7.3-1.5,9.9-4.2l17.7-18.6
													c2.5-2.6,3.8-6.1,3.7-9.7c-0.1-3.6-1.6-7-4.2-9.5C123.544,162.28,120.244,160.98,116.744,160.98"/>
											</g>
										</g>
									</g>
								</g>
								<g>
									<g>
										<g>
											<g>
												<defs>
													<rect id="SVGID_33_" x="-27.556" y="-17.62" width="333.6" height="322.5"/>
												</defs>
												<clipPath id="SVGID_34_">
													<use xlink:href="#SVGID_33_"  style="overflow:visible;"/>
												</clipPath>
												<path class="st16" d="M113.944,217.08c-2.6,0-5-1-6.8-2.7c-1.9-1.8-3-4.3-3.1-6.9c-0.1-2.6,0.9-5.2,2.7-7.1l17.7-18.6
													c1.9-2,4.5-3.1,7.2-3.1c2.6,0,5,1,6.8,2.7c1.9,1.8,3,4.3,3.1,6.9c0.1,2.6-0.9,5.2-2.7,7.1l-17.7,18.6
													C119.244,215.98,116.644,217.08,113.944,217.08z"/>
											</g>
										</g>
									</g>
								</g>
								<g>
									<g>
										<g>
											<g>
												<defs>
													<rect id="SVGID_35_" x="-27.556" y="-17.62" width="333.6" height="322.5"/>
												</defs>
												<clipPath id="SVGID_36_">
													<use xlink:href="#SVGID_35_"  style="overflow:visible;"/>
												</clipPath>
												<path class="st17" d="M131.544,182.38c1.5,0,3.1,0.6,4.3,1.7c2.5,2.4,2.6,6.3,0.2,8.8l-17.7,18.6
													c-1.2,1.3-2.9,1.9-4.5,1.9c-1.5,0-3.1-0.6-4.3-1.7c-2.5-2.4-2.6-6.3-0.2-8.8l17.7-18.6
													C128.244,182.98,129.944,182.38,131.544,182.38 M131.544,174.98c-3.7,0-7.3,1.5-9.9,4.2l-17.7,18.6
													c-2.5,2.6-3.8,6.1-3.7,9.7c0.1,3.6,1.6,7,4.2,9.5c2.5,2.4,5.9,3.7,9.3,3.7c3.7,0,7.3-1.5,9.9-4.2l17.7-18.6
													c5.1-5.4,4.9-14-0.5-19.2C138.344,176.28,135.044,174.98,131.544,174.98"/>
											</g>
										</g>
									</g>
								</g>
								<g>
									<g>
										<g>
											<g>
												<defs>
													<rect id="SVGID_37_" x="-27.556" y="-17.62" width="333.6" height="322.5"/>
												</defs>
												<clipPath id="SVGID_38_">
													<use xlink:href="#SVGID_37_"  style="overflow:visible;"/>
												</clipPath>
												<path class="st18" d="M133.244,133.88c-4.1,0-8.1-1.7-10.8-4.7c-5.6-6-5.3-15.4,0.7-21l26.1-24.5c2.8-2.6,6.4-4,10.1-4
													c4.1,0,8.1,1.7,10.8,4.7c5.6,6,5.3,15.4-0.7,21l-26.1,24.5C140.644,132.38,137.044,133.88,133.244,133.88z"/>
											</g>
										</g>
									</g>
								</g>
								<g>
									<g>
										<g>
											<g>
												<defs>
													<rect id="SVGID_39_" x="-27.556" y="-17.62" width="333.6" height="322.5"/>
												</defs>
												<clipPath id="SVGID_40_">
													<use xlink:href="#SVGID_39_"  style="overflow:visible;"/>
												</clipPath>
												<path class="st19" d="M159.344,83.88c2.8,0,5.7,1.1,7.8,3.3c4,4.3,3.8,11-0.5,15.1l-26.1,24.5c-2.1,1.9-4.7,2.9-7.3,2.9
													c-2.8,0-5.7-1.1-7.8-3.4c-4-4.3-3.8-11,0.5-15.1l26.1-24.5C154.144,84.88,156.744,83.88,159.344,83.88 M159.344,75.48
													c-4.9,0-9.5,1.8-13,5.1l-26.1,24.5c-7.7,7.2-8.1,19.3-0.9,26.9c3.6,3.8,8.6,6,13.9,6c4.9,0,9.5-1.8,13-5.1l26.1-24.5
													c3.7-3.5,5.8-8.2,6-13.3s-1.7-9.9-5.1-13.6C169.644,77.68,164.544,75.48,159.344,75.48"/>
											</g>
										</g>
									</g>
								</g>
								<g>
									<g>
										<g>
											<g>
												<defs>
													<rect id="SVGID_41_" x="-27.556" y="-17.62" width="333.6" height="322.5"/>
												</defs>
												<clipPath id="SVGID_42_">
													<use xlink:href="#SVGID_41_"  style="overflow:visible;"/>
												</clipPath>
												<polygon class="st20" points="295.744,65.08 207.544,153.28 161.344,107.28 155.544,84.08 136.744,65.48 136.844,64.68 
													216.044,-13.92 												"/>
											</g>
										</g>
									</g>
								</g>
							</g>
						</g>
					</g>
				</g>
			</g>
		</g>
	</g>
	<g>
		<path class="st21" d="M321.766,50.407h-11.768v-7.259h32.17v7.259h-11.768v32.006h-8.635V50.407z"/>
		<path class="st21" d="M419.828,82.413h-8.579l-6.654-26.727h-0.109l-6.544,26.727h-8.744l-10.394-39.265h8.634l6.214,26.726h0.11
			l6.819-26.726h8.084l6.709,27.056h0.109l6.435-27.056h8.469L419.828,82.413z"/>
		<path class="st21" d="M487.7,42.213c12.153,0,19.302,9.074,19.302,20.732c0,11.328-7.148,20.402-19.302,20.402
			c-12.154,0-19.303-9.074-19.303-20.402C468.397,51.287,475.546,42.213,487.7,42.213z M487.7,76.089
			c7.754,0,10.668-6.599,10.668-13.143c0-6.874-2.914-13.473-10.668-13.473s-10.669,6.599-10.669,13.473
			C477.031,69.49,479.946,76.089,487.7,76.089z"/>
		<path class="st21" d="M341.454,151.959c-3.024,3.904-6.983,5.389-10.778,5.389c-12.153,0-19.302-9.073-19.302-20.402
			c0-11.659,7.149-20.732,19.302-20.732c8.029,0,15.618,4.949,16.553,13.858h-8.249c-0.989-4.345-4.234-6.599-8.304-6.599
			c-7.754,0-10.668,6.599-10.668,13.473c0,6.544,2.915,13.143,10.668,13.143c5.609,0,8.854-3.024,9.349-8.469h-8.688v-6.434h16.498
			v21.227h-5.5L341.454,151.959z"/>
		<path class="st21" d="M423.898,141.565c0,10.613-6.27,15.782-16.772,15.782c-10.559,0-16.718-5.114-16.718-15.782v-24.417h8.634
			v24.417c0,4.289,1.1,8.523,8.084,8.523c6.159,0,8.139-2.694,8.139-8.523v-24.417h8.634V141.565z"/>
		<path class="st21" d="M477.251,141.125l-14.463-23.977h9.734l9.184,15.508l9.129-15.508h9.623l-14.573,24.196v15.068h-8.634
			V141.125z"/>
		<path class="st21" d="M545.396,143.379c0,5.225,4.069,7.259,8.688,7.259c3.025,0,7.645-0.88,7.645-4.895
			c0-4.234-5.885-4.949-11.658-6.488c-5.83-1.54-11.714-3.795-11.714-11.164c0-8.029,7.589-11.878,14.683-11.878
			c8.194,0,15.729,3.575,15.729,12.648h-8.359c-0.274-4.729-3.629-5.939-7.754-5.939c-2.749,0-5.939,1.155-5.939,4.455
			c0,3.024,1.87,3.41,11.714,5.939c2.859,0.715,11.658,2.529,11.658,11.438c0,7.204-5.664,12.593-16.333,12.593
			c-8.688,0-16.827-4.289-16.717-13.968H545.396z"/>
		<path class="st21" d="M323.802,191.148h8.854l14.684,39.265h-8.964l-2.97-8.744h-14.683l-3.08,8.744h-8.744L323.802,191.148z
			 M322.976,215.235h10.174l-4.949-14.408h-0.11L322.976,215.235z"/>
		<path class="st21" d="M386.504,191.148h17.707c9.789,0,13.583,6.214,13.583,12.593c0,6.38-3.794,12.594-13.583,12.594h-9.073
			v14.078h-8.634V191.148z M395.137,209.626h6.709c4.015,0,7.589-0.88,7.589-5.885c0-5.004-3.574-5.884-7.589-5.884h-6.709V209.626z
			"/>
		<path class="st21" d="M458.938,191.148h17.707c9.789,0,13.583,6.214,13.583,12.593c0,6.38-3.794,12.594-13.583,12.594h-9.073
			v14.078h-8.634V191.148z M467.572,209.626h6.709c4.015,0,7.589-0.88,7.589-5.885c0-5.004-3.574-5.884-7.589-5.884h-6.709V209.626z
			"/>
	</g>
</g>
<g id="Ebene_2" class="st22">
	
		<image style="display:inline;overflow:visible;opacity:0.3;" width="1126" height="548" xlink:href="../Desktop/webapp/2guys design/logo/2guys logo/2guys-logo.png"  transform="matrix(0.6079 0 0 0.6079 -42.2679 -29.5729)">
	</image>
</g>
</svg>
