<?xml version="1.0" encoding="utf-8"?>
<!-- Generator: Adobe Illustrator 23.0.6, SVG Export Plug-In . SVG Version: 6.00 Build 0)  -->
<svg version="1.1" xmlns="http://www.w3.org/2000/svg" xmlns:xlink="http://www.w3.org/1999/xlink" x="0px" y="0px"
	 viewBox="0 0 317.44 306.88" style="enable-background:new 0 0 317.44 306.88;" xml:space="preserve">
<style type="text/css">
	.st0{clip-path:url(#SVGID_2_);fill:#4F4FFF;}
	.st1{clip-path:url(#SVGID_4_);fill:#FFFFFF;}
	.st2{clip-path:url(#SVGID_4_);fill:#4F4FFF;}
	.st3{clip-path:url(#SVGID_6_);fill:#FFFFFF;}
	.st4{clip-path:url(#SVGID_6_);fill:#4F4FFF;}
	.st5{display:none;}
	.st6{display:inline;fill:none;stroke:#4F4FFF;stroke-width:8;stroke-miterlimit:10;}
</style>
<g id="Ebene_1">
	<g>
		<defs>
			<rect id="SVGID_1_" x="-7" y="-8" width="333.56" height="322.46"/>
		</defs>
		<clipPath id="SVGID_2_">
			<use xlink:href="#SVGID_1_"  style="overflow:visible;"/>
		</clipPath>
		<path class="st0" d="M283.52,154.75c0,69.64-56.45,126.09-126.09,126.09S31.33,224.38,31.33,154.75
			c0-69.64,56.45-126.09,126.09-126.09S283.52,85.11,283.52,154.75"/>
	</g>
	<g>
		<defs>
			<rect id="SVGID_3_" x="-7" y="1.46" width="333.56" height="322.46"/>
		</defs>
		<clipPath id="SVGID_4_">
			<use xlink:href="#SVGID_3_"  style="overflow:visible;"/>
		</clipPath>
		<path class="st1" d="M165.77,232.91l-15.96-15.96c-3.06-3.07-3.06-8.08,0-11.14c3.06-3.07,8.08-3.07,11.14,0l15.96,15.96
			c3.07,3.07,3.07,8.08,0,11.14C173.85,235.97,168.84,235.97,165.77,232.91"/>
		<path class="st1" d="M183.3,218.66l-16.65-16.65c-2.76-2.76-2.76-7.28,0-10.04c2.76-2.76,7.28-2.76,10.04,0l16.64,16.64
			c2.76,2.76,2.76,7.28,0,10.04C190.58,221.42,186.07,221.42,183.3,218.66"/>
		<path class="st1" d="M197.98,204.09l-16.47-16.47c-2.81-2.81-2.81-7.41,0-10.21c2.81-2.81,7.41-2.81,10.22,0l16.47,16.47
			c2.81,2.81,2.81,7.41,0,10.22C205.38,206.9,200.79,206.9,197.98,204.09"/>
		<path class="st1" d="M210.82,187.62L195.1,171.9c-3.02-3.02-3.02-7.95,0-10.97c3.02-3.02,7.95-3.02,10.97,0l15.72,15.72
			c3.02,3.02,3.02,7.95,0,10.97C218.77,190.63,213.83,190.63,210.82,187.62"/>
		<polygon class="st1" points="214.9,169.76 154.2,111.56 163.88,102.7 77.64,18.19 5.59,101.53 77.1,172.61 158.17,225.31 		"/>
		<path class="st2" d="M183.06,228.32l-13-13.69c-1.17-1.23-1.12-3.19,0.11-4.36l0.3-0.28c1.23-1.17,3.19-1.12,4.36,0.11l13,13.69
			c1.17,1.23,1.12,3.19-0.11,4.36l-0.3,0.28C186.19,229.61,184.23,229.55,183.06,228.32"/>
		<path class="st2" d="M199.24,214.01l-13.69-13c-1.23-1.17-1.28-3.13-0.11-4.36l0.28-0.29c1.17-1.23,3.13-1.28,4.36-0.11l13.69,13
			c1.23,1.17,1.28,3.13,0.11,4.36l-0.28,0.3C202.43,215.13,200.47,215.18,199.24,214.01"/>
		<path class="st2" d="M213.63,199.75l-13.35-13.35c-1.2-1.2-1.2-3.16,0-4.36l0.29-0.29c1.2-1.2,3.16-1.2,4.36,0l13.35,13.35
			c1.2,1.2,1.2,3.16,0,4.36l-0.29,0.29C216.8,200.95,214.83,200.95,213.63,199.75"/>
	</g>
	<g>
		<defs>
			<rect id="SVGID_5_" x="-7" y="1.46" width="333.56" height="322.46"/>
		</defs>
		<clipPath id="SVGID_6_">
			<use xlink:href="#SVGID_5_"  style="overflow:visible;"/>
		</clipPath>
		<path class="st3" d="M89.14,192.88c-2.55,0-4.97-0.96-6.81-2.71c-3.96-3.76-4.12-10.04-0.37-14l17.67-18.62
			c1.86-1.96,4.47-3.08,7.18-3.08c2.55,0,4.97,0.96,6.81,2.71c3.96,3.76,4.12,10.04,0.37,14L96.32,189.8
			C94.46,191.76,91.85,192.88,89.14,192.88z"/>
		<path class="st4" d="M106.81,158.15c1.54,0,3.08,0.56,4.28,1.7c2.48,2.36,2.59,6.32,0.23,8.8l-17.67,18.62
			c-1.22,1.29-2.87,1.93-4.52,1.93c-1.54,0-3.08-0.56-4.28-1.7c-2.48-2.36-2.59-6.32-0.23-8.8l17.67-18.62
			C103.51,158.8,105.16,158.15,106.81,158.15 M106.81,150.8c-3.71,0-7.31,1.54-9.85,4.22l-17.67,18.62
			c-2.49,2.63-3.81,6.07-3.72,9.7s1.59,7,4.22,9.49c2.53,2.4,5.85,3.72,9.34,3.72c3.71,0,7.3-1.54,9.85-4.23l17.67-18.62
			c2.49-2.63,3.81-6.07,3.72-9.7c-0.1-3.63-1.59-7-4.22-9.49C113.63,152.12,110.31,150.8,106.81,150.8"/>
		<path class="st3" d="M104.57,207.53c-2.55,0-4.97-0.96-6.81-2.71c-1.91-1.82-3.01-4.27-3.07-6.92c-0.07-2.65,0.89-5.16,2.71-7.07
			l17.67-18.62c1.86-1.96,4.48-3.08,7.18-3.08c2.55,0,4.97,0.96,6.81,2.71c1.91,1.82,3.01,4.28,3.07,6.92
			c0.07,2.65-0.89,5.16-2.71,7.07l-17.67,18.62C109.9,206.41,107.28,207.53,104.57,207.53z"/>
		<path class="st4" d="M122.25,172.8c1.54,0,3.08,0.56,4.28,1.7c2.48,2.36,2.59,6.32,0.23,8.8l-17.67,18.62
			c-1.22,1.28-2.87,1.93-4.52,1.93c-1.54,0-3.08-0.56-4.28-1.7c-2.48-2.36-2.59-6.32-0.23-8.8l17.67-18.62
			C118.95,173.45,120.6,172.8,122.25,172.8 M122.25,165.45c-3.71,0-7.3,1.54-9.85,4.22l-17.67,18.62c-2.49,2.63-3.81,6.07-3.72,9.7
			c0.09,3.63,1.59,7,4.22,9.49c2.53,2.4,5.85,3.72,9.34,3.72c3.71,0,7.3-1.54,9.85-4.22l17.67-18.62c2.49-2.63,3.81-6.07,3.72-9.7
			c-0.1-3.63-1.59-7-4.22-9.49C129.07,166.77,125.75,165.45,122.25,165.45"/>
		<path class="st3" d="M119.63,222.11c-2.55,0-4.97-0.96-6.81-2.71c-1.91-1.82-3.01-4.27-3.08-6.92c-0.07-2.65,0.89-5.16,2.71-7.07
			l17.67-18.62c1.86-1.96,4.48-3.08,7.19-3.08c2.55,0,4.97,0.96,6.81,2.71c1.91,1.82,3.01,4.28,3.07,6.92
			c0.07,2.65-0.89,5.16-2.71,7.08l-17.67,18.62C124.95,220.99,122.34,222.11,119.63,222.11L119.63,222.11z"/>
		<path class="st4" d="M137.3,187.38c1.54,0,3.08,0.56,4.28,1.7c2.48,2.36,2.59,6.32,0.23,8.8l-17.67,18.62
			c-1.22,1.28-2.87,1.93-4.52,1.93c-1.54,0-3.08-0.56-4.28-1.7c-2.48-2.36-2.59-6.32-0.23-8.8l17.67-18.62
			C134.01,188.03,135.65,187.38,137.3,187.38 M137.3,180.03c-3.71,0-7.31,1.54-9.85,4.22l-17.67,18.62
			c-2.49,2.63-3.81,6.07-3.72,9.7c0.09,3.63,1.59,7,4.22,9.49c2.53,2.4,5.85,3.72,9.35,3.72c3.71,0,7.3-1.54,9.85-4.22l17.67-18.62
			c2.49-2.63,3.81-6.07,3.72-9.7c-0.1-3.63-1.59-7-4.22-9.49C144.12,181.35,140.8,180.03,137.3,180.03"/>
		<path class="st3" d="M134.44,236.17c-2.55,0-4.97-0.96-6.81-2.71c-1.91-1.82-3.01-4.27-3.07-6.92c-0.07-2.65,0.89-5.16,2.71-7.07
			l17.67-18.62c1.86-1.96,4.48-3.08,7.18-3.08c2.55,0,4.97,0.96,6.81,2.71c1.91,1.82,3.01,4.28,3.08,6.92
			c0.07,2.65-0.89,5.16-2.71,7.07l-17.67,18.62C139.76,235.05,137.15,236.17,134.44,236.17z"/>
		<path class="st4" d="M152.11,201.44c1.54,0,3.08,0.56,4.28,1.7c2.48,2.36,2.59,6.32,0.23,8.8l-17.67,18.62
			c-1.22,1.28-2.87,1.93-4.52,1.93c-1.54,0-3.08-0.56-4.28-1.7c-2.48-2.36-2.59-6.32-0.23-8.8l17.67-18.62
			C148.82,202.08,150.46,201.44,152.11,201.44 M152.11,194.08c-3.71,0-7.3,1.54-9.85,4.22l-17.67,18.62
			c-2.49,2.63-3.81,6.07-3.72,9.7c0.09,3.63,1.59,7,4.22,9.49c2.53,2.4,5.85,3.72,9.34,3.72c3.71,0,7.3-1.54,9.85-4.22L161.96,217
			c5.15-5.43,4.93-14.04-0.5-19.2C158.93,195.4,155.61,194.08,152.11,194.08"/>
		<path class="st3" d="M153.81,152.92c-4.1,0-8.05-1.71-10.84-4.68c-5.6-5.97-5.3-15.39,0.67-20.99l26.08-24.46
			c2.75-2.58,6.36-4.01,10.15-4.01c4.1,0,8.05,1.71,10.84,4.68c5.6,5.97,5.3,15.39-0.67,20.99l-26.08,24.46
			C161.21,151.5,157.6,152.92,153.81,152.92z"/>
		<path class="st4" d="M179.88,102.98c2.84,0,5.68,1.12,7.77,3.35c4.01,4.27,3.79,11.04-0.48,15.05l-26.08,24.46
			c-2.05,1.92-4.67,2.87-7.28,2.87c-2.84,0-5.68-1.12-7.77-3.35c-4.01-4.27-3.79-11.04,0.48-15.05l26.08-24.46
			C174.64,103.93,177.26,102.98,179.88,102.98 M179.88,94.58c-4.87,0-9.49,1.83-13.03,5.14l-26.08,24.46
			c-7.66,7.19-8.05,19.27-0.86,26.93c3.58,3.82,8.65,6,13.9,6c4.87,0,9.49-1.83,13.03-5.14l26.08-24.46
			c3.7-3.47,5.83-8.19,5.99-13.29c0.16-5.1-1.66-9.94-5.13-13.64C190.2,96.76,185.13,94.58,179.88,94.58"/>
		<polygon class="st3" points="316.24,84.13 228.08,172.31 181.87,126.35 176.08,103.13 157.26,84.51 157.43,83.8 236.6,5.12 		"/>
	</g>
</g>
<g id="Ebene_2" class="st5">
	<path class="st6" d="M275.48,148.88c0,66.27-53.73,120-120,120s-120-53.73-120-120c0-66.27,53.73-120,120-120
		S275.48,82.61,275.48,148.88"/>
</g>
</svg>
